<svg xmlns="http://www.w3.org/2000/svg" viewBox="0 0 120 120" role="img" aria-label="Grace logo - chef hat and spoon">
  <defs>
    <linearGradient id="g1" x1="0" x2="1" y1="0" y2="1">
      <stop offset="0%" stop-color="#ff7a4d" />
      <stop offset="100%" stop-color="#ffb18a" />
    </linearGradient>
  </defs>
  <rect width="120" height="120" rx="18" fill="url(#g1)" />
  <!-- chef hat -->
  <g transform="translate(26,20)" fill="#ffffff">
    <path d="M11 22c-4.4 0-8-3.6-8-8 0-3.6 2.4-6.6 5.7-7.6C9.2 3.7 12.9 2 17 2c5.1 0 9.3 3.1 10.6 7.5 3.2.7 5.4 3.8 5.4 7.5 0 4.4-3.6 8-8 8H11z" opacity="0.98"/>
    <rect x="6" y="30" width="38" height="6" rx="3" />
  </g>
  <!-- spoon -->
  <g transform="translate(76,64) rotate(18)">
    <path d="M0 0c0 4 3 7 6.7 7 3.7 0 6.7-3 6.7-7 0-4-3-7-6.7-7C3  -7 0-4 0 0z" fill="#fff" opacity="0.95" transform="translate(-3,-10) scale(0.9)"/>
    <rect x="5" y="2" width="28" height="6" rx="3" fill="#fff" transform="rotate(20 19 5)"/>
  </g>
  <!-- small shine -->
  <circle cx="36" cy="36" r="3.5" fill="#fff" opacity="0.12" />
</svg>